<?xml version="1.0" encoding="utf-8"?>
<COLLADA xmlns="http://www.collada.org/2005/11/COLLADASchema" version="1.4.1" xmlns:xsi="http://www.w3.org/2001/XMLSchema-instance">
  <asset>
    <contributor>
      <author>Blender User</author>
      <authoring_tool>Blender 4.0.2 commit date:2023-12-05, commit time:07:41, hash:9be62e85b727</authoring_tool>
    </contributor>
    <created>2024-12-17T20:29:18</created>
    <modified>2024-12-17T20:29:18</modified>
    <unit name="meter" meter="1"/>
    <up_axis>Z_UP</up_axis>
  </asset>
  <library_images/>
  <library_geometries>
    <geometry id="Plane-mesh" name="Plane">
      <mesh>
        <source id="Plane-mesh-positions">
          <float_array id="Plane-mesh-positions-array" count="228">-0.2703995 -0.4080431 0.3179876 -0.1003994 -0.4080431 0.3179876 -0.2703995 0.4080431 0.3179876 -0.1003994 0.4080431 0.3179876 -0.1853995 -0.4964529 0.3179876 -0.1853995 0.4964529 0.3179876 -0.2703995 0.4080431 0.2546027 -0.2703995 -0.4080431 0.2546027 -0.1853995 -0.4964529 0.2546027 -0.1003994 -0.4080431 0.2546027 -0.1003994 0.4080431 0.2546027 -0.1853995 0.4964529 0.2546027 -0.2652291 0.3832223 0.2321113 -0.2652291 -0.3832223 0.2321113 -0.1853995 -0.4662542 0.2321113 -0.1055699 -0.3832223 0.2321113 -0.1055699 0.3832223 0.2321113 -0.1853995 0.4662542 0.2321113 -0.2574059 0.3456673 0.03664058 -0.2574059 -0.3456673 0.03664058 -0.1853995 -0.4205622 0.03664058 -0.1133931 -0.3456673 0.03664058 -0.1133931 0.3456673 0.03664058 -0.1853995 0.4205622 0.03664058 -0.243077 0.2768814 2.45452e-4 -0.243077 -0.2768814 2.45452e-4 -0.1853995 -0.3368727 2.45452e-4 -0.1277219 -0.2768814 2.45452e-4 -0.1277219 0.2768814 2.45452e-4 -0.1853995 0.3368727 2.45452e-4 0.09836435 -0.4080431 0.3179876 0.2683644 -0.4080431 0.3179876 0.09836435 0.4080431 0.3179876 0.2683644 0.4080431 0.3179876 0.1833643 -0.4964529 0.3179876 0.1833643 0.4964529 0.3179876 0.09836435 0.4080431 0.2546027 0.09836435 -0.4080431 0.2546027 0.1833643 -0.4964529 0.2546027 0.2683644 -0.4080431 0.2546027 0.2683644 0.4080431 0.2546027 0.1833643 0.4964529 0.2546027 0.1035348 0.3832223 0.2321113 0.1035348 -0.3832223 0.2321113 0.1833643 -0.4662542 0.2321113 0.263194 -0.3832223 0.2321113 0.263194 0.3832223 0.2321113 0.1833643 0.4662542 0.2321113 0.1113579 0.3456673 0.03664058 0.1113579 -0.3456673 0.03664058 0.1833643 -0.4205622 0.03664058 0.2553708 -0.3456673 0.03664058 0.2553708 0.3456673 0.03664058 0.1833643 0.4205622 0.03664058 0.1256868 0.2768814 2.45452e-4 0.1256868 -0.2768814 2.45452e-4 0.1833643 -0.3368727 2.45452e-4 0.2410419 -0.2768814 2.45452e-4 0.2410419 0.2768814 2.45452e-4 0.1833643 0.3368727 2.45452e-4 -0.1163721 0.101449 0.3021805 0.116372 0.101449 0.3021805 -0.1163721 0.1388083 0.3021805 0.116372 0.1388083 0.3021805 -0.1352158 -0.1229088 0.3021805 0.09752827 -0.1229088 0.3021805 -0.1352158 -0.08554965 0.3021805 0.09752827 -0.08554965 0.3021805 -0.1163721 0.1388083 0.3208388 -0.1163721 0.101449 0.3208388 0.116372 0.101449 0.3208388 0.116372 0.1388083 0.3208388 -0.1352158 -0.1229088 0.3208388 -0.1352158 -0.08554965 0.3208388 0.09752827 -0.1229088 0.3208388 0.09752827 -0.08554965 0.3208388</float_array>
          <technique_common>
            <accessor source="#Plane-mesh-positions-array" count="76" stride="3">
              <param name="X" type="float"/>
              <param name="Y" type="float"/>
              <param name="Z" type="float"/>
            </accessor>
          </technique_common>
        </source>
        <source id="Plane-mesh-normals">
          <float_array id="Plane-mesh-normals-array" count="276">-3.08981e-7 0 -1 -4.83334e-7 0 -1 0.5277249 0.5073708 0.6812351 -0.5277242 0.5073708 0.6812356 0.7208715 0.6930688 0 -1 0 0 1 0 0 -0.7208715 -0.6930689 0 0.7208714 -0.6930689 0 -0.7208715 0.6930688 0 -0.9992001 0 0.03999 0.7115936 0.6841488 0.1599223 -0.9745796 0 0.2240419 0.9745798 0 0.2240409 -0.5277249 -0.5073708 0.6812351 0.5277241 -0.5073711 0.6812355 0.3831471 -0.3683697 0.8470549 -0.3831472 -0.3683698 0.8470548 0.9992001 0 0.03999018 -0.7115937 -0.6841487 0.1599221 0.7115938 -0.6841486 0.1599223 -0.7115938 0.6841486 0.1599226 0 0 1 -0.3831471 0.3683699 0.8470549 0.3831475 0.3683703 0.8470546 -0.9304835 0 0.3663341 0.9304836 0 0.3663338 -3.08981e-7 0 -1 -4.83334e-7 0 -1 0.5277256 0.5073716 0.6812341 -0.5277242 0.507371 0.6812356 -0.7208715 -0.6930688 0 0.7208715 -0.6930688 0 -0.9992001 0 0.03999018 0.7115937 0.6841487 0.1599221 -0.9745801 0 0.2240397 -0.5277256 -0.5073716 0.6812341 0.5277242 -0.5073708 0.6812356 0.3831471 -0.3683699 0.8470549 0.9992001 0 0.03999 -0.7115936 -0.6841488 0.1599223 0.7115938 -0.6841486 0.1599226 -0.7115936 0.6841487 0.1599225 -0.383147 0.3683698 0.847055 0.3831471 0.3683698 0.847055 0 0 -1 0 -1 0 0 1 0 8.59261e-7 0 -1 0.5277241 0.5073711 0.6812355 -0.5277249 0.5073708 0.6812351 0.7208718 0.6930684 0 -0.7208719 -0.6930683 0 0.7208719 -0.6930683 0 -0.7208719 0.6930684 0 -0.9992001 0 0.03999 0.7115938 0.6841486 0.1599223 -0.9745795 0 0.2240422 0.9745798 0 0.2240412 -0.5277242 -0.5073708 0.6812356 0.5277249 -0.5073708 0.6812351 0.3831475 -0.3683703 0.8470546 -0.3831471 -0.3683699 0.8470549 0.9992001 0 0.03999018 -0.7115938 -0.6841486 0.1599226 0.7115936 -0.6841488 0.1599223 -0.7115937 0.6841487 0.1599221 0 0 1 0 0 1 -0.3831472 0.3683698 0.8470548 0.3831471 0.3683697 0.8470549 -0.9304835 0 0.366334 0.9304836 0 0.3663337 8.59261e-7 0 -1 0.5277242 0.5073708 0.6812356 -0.5277256 0.5073716 0.6812341 0.7208719 0.6930683 0 -0.7208719 0.6930683 0 -0.9992001 0 0.03999018 0.7115938 0.6841486 0.1599226 -0.9745801 0 0.22404 -0.5277242 -0.507371 0.6812356 0.5277256 -0.5073716 0.6812341 0.3831471 -0.3683698 0.847055 -0.383147 -0.3683698 0.847055 0.9992001 0 0.03999 -0.7115936 -0.6841487 0.1599225 0.7115937 -0.6841487 0.1599221 -0.7115936 0.6841488 0.1599223 0 0 1 0 0 1 0.3831471 0.3683699 0.8470549</float_array>
          <technique_common>
            <accessor source="#Plane-mesh-normals-array" count="92" stride="3">
              <param name="X" type="float"/>
              <param name="Y" type="float"/>
              <param name="Z" type="float"/>
            </accessor>
          </technique_common>
        </source>
        <source id="Plane-mesh-map-0">
          <float_array id="Plane-mesh-map-0-array" count="816">0.5 1 1 0 0.5 0 0 1 0.5 0 0 0 0 0 0.5 0 0 0 1 0 0.5 0 0.5 0 0.5 0 0 0 0 0 1 1 1 0 1 0 0 0 0 1 0 1 0.5 1 1 1 1 1 0 1 0.5 1 0.5 1 1 0 0.5 0 0.5 0 1 1 1 0 1 0 0 0 0.5 0 0 0 1 1 1 0 1 0 0 0 0 1 0 1 1 1 0.5 1 1 1 0 1 0.5 1 0.5 1 0 1 0.5 1 0.5 1 1 1 0.5 1 1 1 0 0 0 1 0 1 1 1 0.5 1 1 1 0 1 0.5 1 0.5 1 1 0 0.5 0 0.5 0 1 0 0.5 1 0.5 0 0.5 0 0 1 0 0 1 0 0.5 0 0.5 0 0 0 0.5 0 0 0 1 1 1 0 1 0 0 0 0 1 0 1 0.5 1 1 0 0.5 0 0 1 0.5 0 0 0 0 0 0.5 0 0 0 1 0 0.5 0 0.5 0 0.5 0 0 0 0 0 1 1 1 0 1 0 0 0 0 1 0 1 0.5 1 1 1 1 1 0 1 0.5 1 0.5 1 1 0 0.5 0 0.5 0 1 1 1 0 1 0 0 0 0.5 0 0 0 1 1 1 0 1 0 0 0 0 1 0 1 1 1 0.5 1 1 1 0 1 0.5 1 0.5 1 0 1 0.5 1 0.5 1 1 1 0.5 1 1 1 0 0 0 1 0 1 1 1 0.5 1 1 1 0 1 0.5 1 0.5 1 1 0 0.5 0 0.5 0 1 0 0.5 1 0.5 0 0.5 0 0 1 0 0 1 0 0.5 0 0.5 0 0 0 0.5 0 0 0 1 1 1 0 1 0 0 0 0 1 0 1 0 1 1 0 0 0 0 1 1 0 0 0 1 0 0 1 0 0 1 0 0 1 0 0 1 0 0 0 0 0 0 1 1 1 1 1 1 0 0 0 0 0 1 1 1 0 1 0 0 0 0 1 0 1 1 1 1 0 1 0 0 0 0 1 0 1 0 1 1 1 1 1 0.5 1 1 1 1 0 0 1 0.5 1 0.5 0 0 0 0.5 0 0.5 0 1 0 1 0 0.5 0 0.5 0 0.5 0 0 0 1 1 1 1 1 0 0 0 0 0 0 1 0.5 1 0.5 1 1 1 0 1 0 1 0.5 1 1 0 1 0 0.5 0 1 1 1 1 1 0 0 0 0.5 0 0.5 0 1 1 1 1 1 0 0 0 0 0 0 1 1 1 0.5 1 0.5 1 0 1 0 1 0.5 1 0 1 0 1 0.5 1 1 1 0.5 1 0.5 1 0 0 0 0 0 1 1 1 0.5 1 0.5 1 0 1 0 1 0.5 1 1 0 1 0 0.5 0 1 0 1 1 0.5 1 0.5 0 0.5 1 0 1 1 0 1 0 0.5 0 0 0 0.5 0 0.5 0 1 1 1 1 1 0 0 0 0 0 0 1 0.5 1 1 1 1 0 0 1 0.5 1 0.5 0 0 0 0.5 0 0.5 0 1 0 1 0 0.5 0 0.5 0 0.5 0 0 0 1 1 1 1 1 0 0 0 0 0 0 1 0.5 1 0.5 1 1 1 0 1 0 1 0.5 1 1 0 1 0 0.5 0 1 1 1 1 1 0 0 0 0.5 0 0.5 0 1 1 1 1 1 0 0 0 0 0 0 1 1 1 0.5 1 0.5 1 0 1 0 1 0.5 1 0 1 0 1 0.5 1 1 1 0.5 1 0.5 1 0 0 0 0 0 1 1 1 0.5 1 0.5 1 0 1 0 1 0.5 1 1 0 1 0 0.5 0 1 0 1 1 0.5 1 0.5 0 0.5 1 0 1 1 0 1 0 0.5 0 0 0 0.5 0 0.5 0 1 1 1 1 1 0 0 0 0 0 0 1 0 1 1 1 1 0 0 1 1 1 1 0 1 0 1 1 0 1 1 0 1 1 0 1 1 0 1 0 0 0 0 1 0 1 1 1 1 0 1 0 0 0 1 1 1 1 1 0 0 0 0 0 0 1 1 1 1 1 1 0 0 0 0 0 0 1 0 1 0 1 1 1</float_array>
          <technique_common>
            <accessor source="#Plane-mesh-map-0-array" count="408" stride="2">
              <param name="S" type="float"/>
              <param name="T" type="float"/>
            </accessor>
          </technique_common>
        </source>
        <vertices id="Plane-mesh-vertices">
          <input semantic="POSITION" source="#Plane-mesh-positions"/>
        </vertices>
        <triangles count="136">
          <input semantic="VERTEX" source="#Plane-mesh-vertices" offset="0"/>
          <input semantic="NORMAL" source="#Plane-mesh-normals" offset="1"/>
          <input semantic="TEXCOORD" source="#Plane-mesh-map-0" offset="2" set="0"/>
          <p>5 0 0 1 0 1 4 0 2 2 1 3 4 1 4 0 1 5 7 2 6 14 2 7 13 2 8 9 3 9 14 3 10 8 3 11 4 4 12 7 4 13 0 4 14 3 5 15 9 5 16 1 5 17 0 6 18 6 6 19 2 6 20 5 7 21 10 7 22 3 7 23 2 8 24 11 8 25 5 8 26 1 9 27 8 9 28 4 9 29 16 10 30 21 10 31 15 10 32 13 11 33 20 11 34 19 11 35 10 12 36 15 12 37 9 12 38 7 13 39 12 13 40 6 13 41 10 14 42 17 14 43 16 14 44 6 15 45 17 15 46 11 15 47 18 16 48 29 16 49 23 16 50 22 17 51 29 17 52 28 17 53 13 18 54 18 18 55 12 18 56 16 19 57 23 19 58 22 19 59 12 20 60 23 20 61 17 20 62 15 21 63 20 21 64 14 21 65 27 22 66 29 22 67 26 22 68 26 22 69 24 22 70 25 22 71 21 23 72 26 23 73 20 23 74 19 24 75 26 24 76 25 24 77 22 25 78 27 25 79 21 25 80 19 26 81 24 26 82 18 26 83 35 27 84 31 27 85 34 27 86 32 28 87 34 28 88 30 28 89 37 29 90 44 29 91 43 29 92 39 30 93 44 30 94 38 30 95 34 4 96 37 4 97 30 4 98 33 5 99 39 5 100 31 5 101 30 6 102 36 6 103 32 6 104 35 31 105 40 31 106 33 31 107 32 32 108 41 32 109 35 32 110 31 9 111 38 9 112 34 9 113 46 33 114 51 33 115 45 33 116 43 34 117 50 34 118 49 34 119 40 35 120 45 35 121 39 35 122 37 13 123 42 13 124 36 13 125 40 36 126 47 36 127 46 36 128 36 37 129 47 37 130 41 37 131 48 38 132 59 38 133 53 38 134 52 17 135 59 17 136 58 17 137 43 39 138 48 39 139 42 39 140 46 40 141 53 40 142 52 40 143 42 41 144 53 41 145 47 41 146 45 42 147 50 42 148 44 42 149 57 22 150 59 22 151 56 22 152 56 22 153 54 22 154 55 22 155 51 43 156 56 43 157 50 43 158 49 44 159 56 44 160 55 44 161 52 25 162 57 25 163 51 25 164 49 26 165 54 26 166 48 26 167 62 45 168 61 45 169 60 45 170 66 45 171 65 45 172 64 45 173 70 22 174 68 22 175 69 22 176 74 22 177 73 22 178 72 22 179 65 46 180 72 46 181 64 46 182 62 47 183 71 47 184 63 47 185 61 46 186 69 46 187 60 46 188 67 6 189 74 6 190 65 6 191 64 5 192 73 5 193 66 5 194 63 6 195 70 6 196 61 6 197 60 5 198 68 5 199 62 5 200 66 47 201 75 47 202 67 47 203 5 48 204 3 48 205 1 48 206 2 45 207 5 45 208 4 45 209 7 49 210 8 49 211 14 49 212 9 50 213 15 50 214 14 50 215 4 51 216 8 51 217 7 51 218 3 5 219 10 5 220 9 5 221 0 6 222 7 6 223 6 6 224 5 52 225 11 52 226 10 52 227 2 53 228 6 53 229 11 53 230 1 54 231 9 54 232 8 54 233 16 55 234 22 55 235 21 55 236 13 56 237 14 56 238 20 56 239 10 57 240 16 57 241 15 57 242 7 58 243 13 58 244 12 58 245 10 59 246 11 59 247 17 59 248 6 60 249 12 60 250 17 60 251 18 61 252 24 61 253 29 61 254 22 62 255 23 62 256 29 62 257 13 63 258 19 63 259 18 63 260 16 64 261 17 64 262 23 64 263 12 65 264 18 65 265 23 65 266 15 66 267 21 66 268 20 66 269 27 67 270 28 67 271 29 67 272 26 68 273 29 68 274 24 68 275 21 69 276 27 69 277 26 69 278 19 70 279 20 70 280 26 70 281 22 71 282 28 71 283 27 71 284 19 72 285 25 72 286 24 72 287 35 73 288 33 73 289 31 73 290 32 45 291 35 45 292 34 45 293 37 74 294 38 74 295 44 74 296 39 75 297 45 75 298 44 75 299 34 76 300 38 76 301 37 76 302 33 5 303 40 5 304 39 5 305 30 6 306 37 6 307 36 6 308 35 52 309 41 52 310 40 52 311 32 53 312 36 53 313 41 53 314 31 77 315 39 77 316 38 77 317 46 78 318 52 78 319 51 78 320 43 79 321 44 79 322 50 79 323 40 80 324 46 80 325 45 80 326 37 58 327 43 58 328 42 58 329 40 81 330 41 81 331 47 81 332 36 82 333 42 82 334 47 82 335 48 83 336 54 83 337 59 83 338 52 84 339 53 84 340 59 84 341 43 85 342 49 85 343 48 85 344 46 86 345 47 86 346 53 86 347 42 87 348 48 87 349 53 87 350 45 88 351 51 88 352 50 88 353 57 89 354 58 89 355 59 89 356 56 90 357 59 90 358 54 90 359 51 69 360 57 69 361 56 69 362 49 91 363 50 91 364 56 91 365 52 71 366 58 71 367 57 71 368 49 72 369 55 72 370 54 72 371 62 45 372 63 45 373 61 45 374 66 45 375 67 45 376 65 45 377 70 22 378 71 22 379 68 22 380 74 22 381 75 22 382 73 22 383 65 46 384 74 46 385 72 46 386 62 47 387 68 47 388 71 47 389 61 46 390 70 46 391 69 46 392 67 6 393 75 6 394 74 6 395 64 5 396 72 5 397 73 5 398 63 6 399 71 6 400 70 6 401 60 5 402 69 5 403 68 5 404 66 47 405 73 47 406 75 47 407</p>
        </triangles>
      </mesh>
    </geometry>
  </library_geometries>
  <library_visual_scenes>
    <visual_scene id="Scene" name="Scene">
      <node id="Plane" name="Plane" type="NODE">
        <matrix sid="transform">1 0 0 0 0 1 0 0 0 0 1 0 0 0 0 1</matrix>
        <instance_geometry url="#Plane-mesh" name="Plane"/>
      </node>
    </visual_scene>
  </library_visual_scenes>
  <scene>
    <instance_visual_scene url="#Scene"/>
  </scene>
</COLLADA>